<?xml version="1.0" encoding="UTF-8"?>
<!-- Night view of the bohemian mountains & trees scene -->
<svg xmlns="http://www.w3.org/2000/svg" width="1600" height="900" viewBox="0 0 1600 900" preserveAspectRatio="xMidYMid slice">
  <defs>
    <!-- deep night sky gradient -->
    <linearGradient id="nightSky" x1="0" x2="0" y1="0" y2="1">
      <stop offset="0%" stop-color="#071025"/>
      <stop offset="100%" stop-color="#07121a"/>
    </linearGradient>
    <radialGradient id="moonGlow" cx="0.75" cy="0.15" r="0.25">
      <stop offset="0%" stop-color="#fffde7" stop-opacity="0.95"/>
      <stop offset="100%" stop-color="#fffde7" stop-opacity="0"/>
    </radialGradient>
    <filter id="softGrain">
      <feTurbulence baseFrequency="0.85" numOctaves="1" stitchTiles="stitch" result="n" />
      <feColorMatrix type="saturate" values="0" />
      <feBlend in="SourceGraphic" in2="n" mode="overlay" />
    </filter>
  </defs>

  <!-- night sky background -->
  <rect width="100%" height="100%" fill="url(#nightSky)" />

  <!-- moon and glow (position matches light sun) -->
  <g transform="translate(1180,140)">
    <circle r="40" fill="#fff9e0" opacity="0.98" />
    <circle r="120" fill="url(#moonGlow)" opacity="0.55" />
  </g>

  <!-- stars scatter -->
  <g fill="#fff8d9" opacity="0.95">
    <circle cx="60" cy="80" r="1.8"/>
    <circle cx="120" cy="60" r="1.2"/>
    <circle cx="220" cy="140" r="1.6"/>
    <circle cx="360" cy="40" r="1.2"/>
    <circle cx="520" cy="90" r="1.1"/>
    <circle cx="720" cy="50" r="1.6"/>
    <circle cx="980" cy="120" r="1.4"/>
    <circle cx="1280" cy="60" r="1.8"/>
    <circle cx="1420" cy="100" r="1.3"/>
  </g>

  <!-- distant mountains (muted, darkened teal) -->
  <path d="M0 600 L140 420 L320 520 L500 430 L700 520 L900 400 L1200 520 L1600 420 L1600 900 L0 900 Z" fill="#274b45" opacity="0.95" />

  <!-- middle mountains (deep plum / mauve) -->
  <path d="M0 700 L120 520 L280 620 L460 500 L620 620 L820 480 L980 600 L1200 480 L1600 700 L1600 900 L0 900 Z" fill="#6b3f47" opacity="0.95" />

  <!-- foreground mountains (rich indigo / terracotta mix) -->
  <path d="M0 820 L180 620 L360 760 L580 600 L760 760 L980 620 L1200 780 L1400 640 L1600 820 L1600 900 L0 900 Z" fill="#4a2f35" opacity="0.98" />

  <!-- rolling hills (muted ochre under moonlight) -->
  <path d="M0 780 C180 720 300 800 480 760 C660 720 840 820 1000 760 C1160 700 1360 820 1600 760 L1600 900 L0 900 Z" fill="#867249" opacity="0.9" />

  <!-- silhouette trees (darker, subtle highlights) -->
  <g fill-opacity="0.98">
    <g transform="translate(120,700)">
      <rect x="-6" y="18" width="12" height="28" fill="#3f2b20" rx="2" />
      <polygon points="0,-20 -36,20 36,20" fill="#25462f" />
      <polygon points="0,-36 -28,-6 28,-6" fill="#2f6a3f" opacity="0.9" />
    </g>
    <g transform="translate(380,720) scale(1.1)">
      <rect x="-6" y="18" width="12" height="28" fill="#3f2b20" rx="2" />
      <polygon points="0,-22 -30,18 30,18" fill="#2f6a3f" />
    </g>
    <g transform="translate(760,700) scale(1.25)">
      <rect x="-7" y="22" width="14" height="34" fill="#372219" rx="2" />
      <polygon points="0,-28 -40,24 40,24" fill="#3b5f3e" />
      <polygon points="0,-44 -34,-6 34,-6" fill="#2f6a3f" />
    </g>
    <g transform="translate(1200,720) scale(1.05)">
      <rect x="-6" y="18" width="12" height="28" fill="#35221b" rx="2" />
      <polygon points="0,-22 -30,18 30,18" fill="#3b5f3e" />
    </g>
  </g>

  <!-- faint horizon accents (tiny boho dots) -->
  <g opacity="0.08" fill="#fff9d8">
    <circle cx="220" cy="140" r="6" />
    <circle cx="480" cy="200" r="4" />
    <circle cx="1320" cy="220" r="5" />
  </g>

  <!-- subtle grain/noise for texture in night scene -->
  <rect width="100%" height="100%" fill="transparent" filter="url(#softGrain)" opacity="0.04" />
</svg>
